<svg xmlns="http://www.w3.org/2000/svg" width="68.99" height="83.72" viewBox="0 0 68.99 83.72">
  <defs>
    <style>
      .tambo-guy-1 {
        fill: #44b2a7;
      }
    </style>
  </defs>
  <path class="tambo-guy-1" d="M609.27,399c4.79,5.54,11.64,14,11.64,14a41.36,41.36,0,0,1,9.07-.81c-2.18,1.93-9.81,8.33-9.81,8.33s-18.49-11.45-18.59-11.36c3.54-3.48,7-7.7,7.69-10.12m29.9-38.85a4.72,4.72,0,0,1,2.89,6.24,5.44,5.44,0,0,1-6.37,3.25,16.1,16.1,0,0,1-2.06,2.07c-.19.18-.4.32-.59.49,0,.09,0,.2.07.29a4.84,4.84,0,0,1-.87,3.68,5.27,5.27,0,0,1-3.29,2.08,5,5,0,0,1-5.68-2.83,19.55,19.55,0,0,1-2-.12l-1.08-.14,0-1a11.17,11.17,0,0,0-1.68-5.71c0,.09-.07.19-.09.26-2.68,5.75-8.29,12.14-19.45,13.11a37.73,37.73,0,0,0,10.34.9c.31,3.16-.12,18.81-16.38,30.81-1.17.9-6.33,4.41-6.33,4.41a35.26,35.26,0,0,1,4.43,7.59c-1.74-.7-17.58-6.92-17.58-6.92A38.14,38.14,0,0,0,589,395.8a30.66,30.66,0,0,0-6.74-26.14c-2.3-2.67-5-5.29-5.75-8.85-1.28-6.19,6.1-10.3,11.34-11.81,4.16-1.21,4.19-3.41,3.66-4.73,5.91.07,1.77,6.31,4.57,8.88,2.62,2.44,4.34,4.65,4.79,8.29a10.24,10.24,0,0,1-1.32,6.64,12.31,12.31,0,0,1-3.59,3.46A35.9,35.9,0,0,0,615.28,365a13.13,13.13,0,0,0-5.87-2.32l-1.08-.14-.05-1.09a14.13,14.13,0,0,1,.07-1.95,5,5,0,0,1-2.37-6,5.38,5.38,0,0,1,6.69-3.33l.21.08c.21-.19.4-.37.61-.59a22.16,22.16,0,0,1,2.45-1.76,5.27,5.27,0,0,1,.84-3.64,5.47,5.47,0,0,1,7.47-1.56,5,5,0,0,1,2.19,3.16,15.29,15.29,0,0,1,5.07,1.67,5.69,5.69,0,0,1,3.78-1.28,5.14,5.14,0,0,1,3.6,1.75,4.87,4.87,0,0,1,1.18,3.73,5.39,5.39,0,0,1-1.82,3.49,13.81,13.81,0,0,1,.92,5m-15.9,11.92h.57a12.58,12.58,0,0,0,7.88-2.92A11.79,11.79,0,0,0,636,361a11.1,11.1,0,0,0-2.77-8.29,12,12,0,0,0-9-4,12.65,12.65,0,0,0-8.26,3.09,12,12,0,0,0-4,7.39l-.08.58.56.18a16.17,16.17,0,0,1,10.68,11.55Z" transform="translate(-573.41 -341.81)"></path>
</svg>